<svg width="30" height="31" viewBox="0 0 30 31" fill="none" xmlns="http://www.w3.org/2000/svg">
<g clip-path="url(#clip0_104822_6)">
<path d="M29.4958 15.1501C29.2959 6.86621 22.6458 0.311074 14.6381 0.504362C6.63036 0.697649 0.3043 7.566 0.504253 15.8499C0.704204 24.1337 7.35428 30.6889 15.362 30.4956C23.3697 30.3023 29.6958 23.4339 29.4958 15.1501ZM14.8823 23.6415L9.14449 9.31319C8.89395 8.64784 9.2724 8.05234 10.2585 8.2461L10.2572 8.24483L21.528 10.436C22.3272 10.5993 22.5323 11.0833 22.1743 11.7758L19.5939 15.5892L21.3216 17.3568C21.5197 17.5521 21.6868 17.7168 21.6962 18.1042L18.0018 17.927L11.7664 11.1255C11.5017 10.8294 11.3658 11.2027 11.6315 11.5951L17.0644 20.0552L16.0376 23.7836C15.8105 24.5931 15.2807 24.6234 14.8823 23.6415Z" fill="black"/>
</g>
<defs>
<clipPath id="clip0_104822_6">
<rect width="30" height="29" fill="white" transform="translate(0.866211 30.8455) rotate(-91.3827)"/>
</clipPath>
</defs>
</svg>
